<?xml version="1.0" standalone="no"?>
<!DOCTYPE svg PUBLIC "-//W3C//DTD SVG 1.1//EN" "http://www.w3.org/Graphics/SVG/1.1/DTD/svg11.dtd" >
<svg xmlns="http://www.w3.org/2000/svg">
<metadata>Generated by IcoMoon</metadata>
<defs>
<font id="icomoon" horiz-adv-x="1024">
<font-face units-per-em="1024" ascent="960" descent="-64" />
<missing-glyph horiz-adv-x="1024" />
<glyph unicode="&#x20;" horiz-adv-x="512" d="" />
<glyph unicode="&#xe900;" glyph-name="ic-business-testing" d="M126.933 742.827v-465.493h-5.12c-43.692 0.049-79.098 35.455-79.147 79.142v439.045c0 43.648 35.499 79.147 79.147 79.147h609.707c43.648 0 79.147-35.499 79.147-79.147v-52.693h-85.333v46.507h-597.333v-46.507h-1.067zM902.187 661.333c43.648 0 79.147-35.499 79.147-79.104v-439.083c-0.049-43.692-35.455-79.098-79.142-79.147h-609.711c-43.692 0.049-79.098 35.455-79.147 79.142v439.088c0 43.605 35.499 79.104 79.147 79.104h609.707zM298.667 149.333h597.333v279.723h-597.333v-279.723zM826.539 332.459c23.564 0 42.667-19.103 42.667-42.667s-19.103-42.667-42.667-42.667h-36.949c-23.564 0-42.667 19.103-42.667 42.667s19.103 42.667 42.667 42.667v0h36.949zM298.667 514.389h597.333v61.611h-597.333v-61.611z" />
<glyph unicode="&#xe901;" glyph-name="ic-business-web-android" d="M640 746.539h-42.667v42.667h42.667v-42.667zM426.667 746.539h-42.667v42.667h42.667v-42.667zM662.613 867.712l55.893 55.893c8.107 8.107 8.107 21.76 0 30.293-3.925 3.767-9.265 6.087-15.147 6.087s-11.221-2.32-15.154-6.094l-63.14-63.14c-34.133 16.64-72.533 26.453-113.067 26.453-40.96 0-79.36-9.813-113.493-26.88l-63.573 63.573c-3.849 3.761-9.12 6.081-14.933 6.081s-11.084-2.32-14.937-6.085l0.004 0.004c-8.533-8.533-8.533-22.187 0-30.293l55.893-55.893c-63.573-46.933-104.96-121.131-104.96-206.464h512c0 85.333-42.667 160-105.387 206.507zM874.667 618.539c-35.346 0-64-28.654-64-64v0-298.667c0-35.346 28.654-64 64-64s64 28.654 64 64v0 298.667c0 35.346-28.654 64-64 64v0zM149.333 618.539c-35.346 0-64-28.654-64-64v0-298.667c0-35.346 28.654-64 64-64s64 28.654 64 64v0 298.667c0 35.346-28.654 64-64 64v0zM256 191.872c0-23.564 19.103-42.667 42.667-42.667v0h42.667v-149.333c0-35.346 28.654-64 64-64s64 28.654 64 64v0 149.333h85.333v-149.333c0-35.346 28.654-64 64-64s64 28.654 64 64v0 149.333h42.667c23.564 0 42.667 19.103 42.667 42.667v0 426.667h-512v-426.667z" />
<glyph unicode="&#xe902;" glyph-name="ic-business-web-api-black" d="M341.333 832c-47.128 0-85.333-38.205-85.333-85.333v0-170.667c0-47.128-38.205-85.333-85.333-85.333v0h-42.667v-85.333h42.667c47.128 0 85.333-38.205 85.333-85.333v0-170.667c0-47.128 38.205-85.333 85.333-85.333v0h85.333v85.333h-85.333v213.333c0 47.128-38.205 85.333-85.333 85.333v0c47.128 0 85.333 38.205 85.333 85.333v0 213.333h85.333v85.333h-85.333zM682.667 832c47.128 0 85.333-38.205 85.333-85.333v0-170.667c0-47.128 38.205-85.333 85.333-85.333v0h42.667v-85.333h-42.667c-47.128 0-85.333-38.205-85.333-85.333v0-170.667c0-47.128-38.205-85.333-85.333-85.333v0h-85.333v85.333h85.333v213.333c0 47.128 38.205 85.333 85.333 85.333v0c-47.128 0-85.333 38.205-85.333 85.333v0 213.333h-85.333v85.333h85.333z" />
<glyph unicode="&#xe903;" glyph-name="ic-business-web-api-reference" d="M170.667 681.515c53.461 15.275 177.323 41.813 296.789 1.579l-0.085-475.819c-57.984 12.672-156.757 22.187-296.704-4.779v479.019zM849.536 202.496c-65.877 12.672-122.581 17.323-170.24 17.323-53.632 0-95.744-5.845-126.421-12.544l-0.085 475.819c118.912 39.851 243.115 13.525 296.747-1.664v-478.933zM907.648 752.299c-8.576 3.285-206.421 77.781-397.525 5.717-191.104 72.107-388.992-2.389-397.568-5.717-16.063-6.337-27.221-21.723-27.221-39.714 0-0.018 0-0.036 0-0.054v0.003-562.944c0-13.056 6.016-25.429 16.256-33.536 7.196-5.667 16.39-9.090 26.384-9.090 3.568 0 7.034 0.436 10.348 1.258l-0.295-0.062c235.691 56.917 352.128 3.669 352.896 3.285 1.835-0.939 3.797-1.408 5.717-2.005 2.913-0.968 6.316-1.691 9.831-2.033l0.195-0.015c0.725 0 1.408-0.128 2.091-0.171 0.141-0.001 0.308-0.002 0.476-0.002 3.852 0 7.605 0.42 11.217 1.218l-0.344-0.064c2.098 0.554 3.831 1.137 5.515 1.817l-0.309-0.11c1.152 0.427 2.432 0.597 3.584 1.152s117.632 53.803 353.28-3.072c2.986-0.745 6.414-1.172 9.942-1.172 23.558 0 42.666 19.055 42.752 42.593v562.952c0 0.015 0 0.033 0 0.051 0 17.992-11.159 33.378-26.933 39.614l-0.288 0.101z" />
<glyph unicode="&#xe904;" glyph-name="ic-business-web-api" d="M341.333 832c-47.128 0-85.333-38.205-85.333-85.333v0-170.667c0-47.128-38.205-85.333-85.333-85.333v0h-42.667v-85.333h42.667c47.128 0 85.333-38.205 85.333-85.333v0-170.667c0-47.128 38.205-85.333 85.333-85.333v0h85.333v85.333h-85.333v213.333c0 47.128-38.205 85.333-85.333 85.333v0c47.128 0 85.333 38.205 85.333 85.333v0 213.333h85.333v85.333h-85.333zM682.667 832c47.128 0 85.333-38.205 85.333-85.333v0-170.667c0-47.128 38.205-85.333 85.333-85.333v0h42.667v-85.333h-42.667c-47.128 0-85.333-38.205-85.333-85.333v0-170.667c0-47.128-38.205-85.333-85.333-85.333v0h-85.333v85.333h85.333v213.333c0 47.128 38.205 85.333 85.333 85.333v0c-47.128 0-85.333 38.205-85.333 85.333v0 213.333h-85.333v85.333h85.333z" />
<glyph unicode="&#xe905;" glyph-name="ic-business-web-faq" d="M512 789.333c-188.203 0-341.333-153.131-341.333-341.333s153.131-341.333 341.333-341.333 341.333 153.131 341.333 341.333-153.131 341.333-341.333 341.333zM512 21.333c-235.264 0-426.667 191.403-426.667 426.667s191.403 426.667 426.667 426.667 426.667-191.403 426.667-426.667-191.403-426.667-426.667-426.667zM466.347 238.080h80.256v76.757h-80.213v-76.757zM393.088 538.155v-13.397h76.8v14.549c0 18.944 3.157 34.389 9.515 46.251 6.443 11.819 16.981 17.749 31.701 17.749 13.227 0 23.040-4.651 29.653-13.739s9.899-20.992 9.899-35.755c0-11.605-1.621-22.571-4.949-32.853-3.285-10.24-8.96-19.883-17.152-28.757l-22.059-25.045c-13.227-14.72-22.485-28.757-27.947-42.112-5.419-13.397-8.107-29.739-8.107-49.152v-22.699h72.107v8.704c0 14.805 2.219 26.795 6.656 36.096 4.48 9.301 11.733 19.584 21.803 30.805l23.253 26.155c13.952 16.299 23.552 31.403 28.8 45.397 5.248 13.952 7.851 29.056 7.851 45.312 0 34.133-10.197 61.397-30.549 81.749-20.309 20.352-51.072 30.507-92.117 30.507-19.029 0-35.797-2.987-50.347-9.045-14.507-6.016-26.539-14.251-36.053-24.704-9.472-10.453-16.64-23.040-21.504-37.76-4.864-14.763-7.253-30.848-7.253-48.256z" />
<glyph unicode="&#xe906;" glyph-name="ic-business-web-get-started" d="M128 384l128.085 128 114.475 22.656c145.749 198.229 424.533 297.344 525.44 297.344 0-100.907-99.115-379.733-297.344-525.44l-22.613-114.475-128.085-128.085-32.128 159.744c-63.829 0-63.829 0-95.957 32.128s-32.128 32.128-32.128 95.957l-159.744 32.128zM256.085 255.872l63.787-63.787-120.363-120.832h-64.256v64.256l120.832 120.363zM191.829 319.701l56.107-7.68-111.36-110.933v64.299l55.253 54.315zM376.021 183.936l7.68-56.107-54.315-55.211h-64.256l110.891 111.317zM589.141 593.067c-37.502 0-67.904-30.402-67.904-67.904s30.402-67.904 67.904-67.904v0c37.502 0 67.904 30.402 67.904 67.904s-30.402 67.904-67.904 67.904v0z" />
<glyph unicode="&#xe907;" glyph-name="ic-business-web-home" d="M814.763 106.667l-0.043 464.043-302.464 209.451-294.827-203.947c0-0.64 0.427-1.152 0.427-1.835v-467.712h596.907zM1005.653 542.293c10.68-7.858 17.534-20.379 17.534-34.501 0-23.588-19.122-42.709-42.709-42.709-8.734 0-16.856 2.622-23.622 7.122l0.157-0.098-57.003 39.509 0.085-447.573c0-0.038 0-0.083 0-0.128 0-23.493-19.045-42.539-42.539-42.539-0.045 0-0.090 0-0.135 0h-682.233c-23.564 0-42.667 19.103-42.667 42.667v0 453.376l-65.579-45.312c-6.785-4.751-15.21-7.591-24.299-7.591-23.574 0-42.685 19.111-42.685 42.685 0 14.485 7.215 27.285 18.248 35.002l0.138 0.091 469.589 324.779c6.786 4.747 15.211 7.586 24.299 7.586s17.513-2.839 24.437-7.677l-0.138 0.092 469.12-324.779zM624.597 362.88h-0.011c0.075 0.001 0.151 0.001 0.226 0.001 10.656 0 19.311-8.566 19.454-19.201v-236.8h-256v236.816c0.167 10.624 8.832 19.185 19.496 19.185 0.076 0 0.151 0 0.216-0.001h216.619zM385.493 531.627c0-23.564 19.103-42.667 42.667-42.667v0h171.947c23.564 0 42.667 19.103 42.667 42.667s-19.103 42.667-42.667 42.667v0h-171.947c-23.564 0-42.667-19.103-42.667-42.667v0z" />
<glyph unicode="&#xe908;" glyph-name="ic-business-web-ios-black" d="M771.669 350.379c19.925-37.547 49.877-64.341 88.747-81.237v-0.427c-0.256-0.597-0.597-1.152-0.811-1.749-4.437-11.435-8.533-23.040-13.312-34.304-18.901-44.544-45.909-83.968-77.227-120.533-10.987-13.239-23.851-24.432-38.285-33.323l-0.669-0.384c-13.542-8.453-29.988-13.466-47.605-13.466-4.111 0-8.158 0.273-12.124 0.802l0.464-0.051c-17.405 2.539-33.097 7.043-47.829 13.357l1.237-0.471c-15.090 6.665-32.649 11.898-50.971 14.852l-1.253 0.167c-5.915 0.839-12.747 1.318-19.691 1.318-9.756 0-19.29-0.946-28.517-2.751l0.934 0.152c-17.35-3.386-32.655-8.18-47.182-14.436l1.486 0.569c-11.797-5.071-25.695-9.417-40.108-12.348l-1.407-0.239c-4.181-0.853-8.448-1.28-12.672-1.877h-10.88c-0.384 0.128-0.768 0.299-1.152 0.341-13.087 1.364-24.965 5.535-35.354 11.9l0.367-0.209c-13.234 7.989-24.625 17.276-34.558 27.937l-0.087 0.095c-21.035 21.632-38.869 45.909-55.381 71.083-23.467 35.669-40.619 74.453-53.547 115.072-10.737 31.72-17.981 68.434-20.213 106.495l-0.054 1.153-0.683 12.245v15.36l0.256 2.304c0.725 9.387 1.152 18.944 2.133 28.331 2.219 20.352 6.784 40.192 14.165 59.307 15.317 39.893 39.168 73.344 74.453 98.048 15.275 10.667 31.701 19.072 49.408 25.003 12.474 4.3 27.002 7.454 42.038 8.86l0.757 0.057c11.349 1.067 22.656 1.024 33.92-0.939 16.683-2.816 32.768-7.595 48.597-13.355 16.085-5.845 32.043-11.989 48.555-16.384 6.997-1.835 14.080-3.925 21.376-1.579 15.104 4.779 30.251 9.643 45.355 14.507 13.44 4.395 26.752 9.216 40.32 13.184 14.226 4.468 30.593 7.096 47.556 7.21h0.060c23.040-0.085 45.525-3.968 67.413-11.093 33.801-10.701 62.164-30.543 83.066-56.622l0.262-0.338c2.261-2.859 4.437-5.803 6.699-8.789l-2.816-1.792c-15.88-9.823-29.585-21.071-41.628-33.898l-0.1-0.107c-20.683-22.078-34.859-50.483-39.33-82.011l-0.094-0.805c-1.202-8.003-1.888-17.238-1.888-26.633 0-9.071 0.64-17.992 1.877-26.722l-0.117 1.003c2.475-18.176 7.424-35.627 16.043-51.84zM539.477 650.368c-0.512 0-1.024 0.128-1.707 0.213-0.615 4.336-0.967 9.345-0.967 14.436 0 2.758 0.103 5.491 0.306 8.197l-0.022-0.361c2.816 38.528 18.859 71.211 43.691 100.011 19.115 22.272 43.093 37.461 70.101 48.256 12.531 5.334 27.056 9.071 42.253 10.494l0.584 0.044c0.384 0.043 0.725 0.213 1.109 0.341h2.859c0.171-8.363 0.981-16.811 0.427-25.131-2.219-38.4-18.475-70.912-43.221-99.627-11.233-13.145-23.908-24.56-37.914-34.177l-0.656-0.426c-13.241-9.17-28.786-16.129-45.531-19.926l-0.89-0.17c-10.027-2.133-20.181-2.773-30.421-2.176z" />
<glyph unicode="&#xe909;" glyph-name="ic-business-web-ios" d="M771.669 350.379c19.925-37.547 49.877-64.341 88.747-81.237v-0.427c-0.256-0.597-0.597-1.152-0.811-1.749-4.437-11.435-8.533-23.040-13.312-34.304-18.901-44.544-45.909-83.968-77.227-120.533-10.987-13.239-23.851-24.432-38.285-33.323l-0.669-0.384c-13.542-8.453-29.988-13.466-47.605-13.466-4.111 0-8.158 0.273-12.124 0.802l0.464-0.051c-17.405 2.539-33.097 7.043-47.829 13.357l1.237-0.471c-15.090 6.665-32.649 11.898-50.971 14.852l-1.253 0.167c-5.915 0.839-12.747 1.318-19.691 1.318-9.756 0-19.29-0.946-28.517-2.751l0.934 0.152c-17.35-3.386-32.655-8.18-47.182-14.436l1.486 0.569c-11.797-5.071-25.695-9.417-40.108-12.348l-1.407-0.239c-4.181-0.853-8.448-1.28-12.672-1.877h-10.88c-0.384 0.128-0.768 0.299-1.152 0.341-13.087 1.364-24.965 5.535-35.354 11.9l0.367-0.209c-13.234 7.989-24.625 17.276-34.558 27.937l-0.087 0.095c-21.035 21.632-38.869 45.909-55.381 71.083-23.467 35.669-40.619 74.453-53.547 115.072-10.737 31.72-17.981 68.434-20.213 106.495l-0.054 1.153-0.683 12.245v15.36l0.256 2.304c0.725 9.387 1.152 18.944 2.133 28.331 2.219 20.352 6.784 40.192 14.165 59.307 15.317 39.893 39.168 73.344 74.453 98.048 15.275 10.667 31.701 19.072 49.408 25.003 12.474 4.3 27.002 7.454 42.038 8.86l0.757 0.057c11.349 1.067 22.656 1.024 33.92-0.939 16.683-2.816 32.768-7.595 48.597-13.355 16.085-5.845 32.043-11.989 48.555-16.384 6.997-1.835 14.080-3.925 21.376-1.579 15.104 4.779 30.251 9.643 45.355 14.507 13.44 4.395 26.752 9.216 40.32 13.184 14.226 4.468 30.593 7.096 47.556 7.21h0.060c23.040-0.085 45.525-3.968 67.413-11.093 33.801-10.701 62.164-30.543 83.066-56.622l0.262-0.338c2.261-2.859 4.437-5.803 6.699-8.789l-2.816-1.792c-15.88-9.823-29.585-21.071-41.628-33.898l-0.1-0.107c-20.683-22.078-34.859-50.483-39.33-82.011l-0.094-0.805c-1.202-8.003-1.888-17.238-1.888-26.633 0-9.071 0.64-17.992 1.877-26.722l-0.117 1.003c2.475-18.176 7.424-35.627 16.043-51.84zM539.477 650.368c-0.512 0-1.024 0.128-1.707 0.213-0.615 4.336-0.967 9.345-0.967 14.436 0 2.758 0.103 5.491 0.306 8.197l-0.022-0.361c2.816 38.528 18.859 71.211 43.691 100.011 19.115 22.272 43.093 37.461 70.101 48.256 12.531 5.334 27.056 9.071 42.253 10.494l0.584 0.044c0.384 0.043 0.725 0.213 1.109 0.341h2.859c0.171-8.363 0.981-16.811 0.427-25.131-2.219-38.4-18.475-70.912-43.221-99.627-11.233-13.145-23.908-24.56-37.914-34.177l-0.656-0.426c-13.241-9.17-28.786-16.129-45.531-19.926l-0.89-0.17c-10.027-2.133-20.181-2.773-30.421-2.176z" />
<glyph unicode="&#xe90a;" glyph-name="ic-check-cirlce" d="M512 874.667c-235.52 0-426.667-191.147-426.667-426.667s191.147-426.667 426.667-426.667 426.667 191.147 426.667 426.667-191.147 426.667-426.667 426.667zM426.667 234.667l-213.333 213.333 60.16 60.16 153.173-152.747 323.84 323.84 60.16-60.587-384-384z" />
<glyph unicode="&#xe90b;" glyph-name="ic-business-web-plugin" d="M686.635 192h-173.397c-140.885 0-255.531 114.645-255.531 256.512 0.194 141.039 114.488 255.318 255.515 255.488h173.413v-512zM938.667 318.037h-166.699v260.309h166.699c23.564 0 42.667 19.103 42.667 42.667s-19.103 42.667-42.667 42.667v0h-166.699v82.987c0 23.564-19.103 42.667-42.667 42.667v0h-216.064c-172.928 0-315.819-129.536-337.621-297.344h-47.616c-23.564 0-42.667-19.103-42.667-42.667s19.103-42.667 42.667-42.667v0h47.061c20.267-168.704 164.053-299.989 338.176-299.989h216.064c23.564 0 42.667 19.103 42.667 42.667v0 83.371h166.699c23.564 0 42.667 19.103 42.667 42.667s-19.103 42.667-42.667 42.667v0z" />
<glyph unicode="&#xe90c;" glyph-name="ic-business-web-refunds" d="M956.117 192.512c0.752-2.999 1.184-6.442 1.184-9.986 0-20.025-13.782-36.832-32.378-41.451l-0.294-0.062-137.685-33.109c-2.996-0.751-6.435-1.182-9.975-1.182-19.893 0-36.606 13.614-41.331 32.033l-0.064 0.296-38.443 154.069c-0.811 3.109-1.276 6.679-1.276 10.357 0 19.896 13.618 36.611 32.042 41.333l0.296 0.064c3.024 0.76 6.496 1.195 10.069 1.195 19.932 0 36.697-13.559 41.575-31.957l0.068-0.3 14.379-57.6c36.968 53.489 59.051 119.727 59.051 191.123 0 0.233 0 0.467-0.001 0.7v-0.036c0 188.203-153.131 341.333-341.333 341.333s-341.333-153.131-341.333-341.333 153.131-341.333 341.333-341.333c23.564 0 42.667-19.103 42.667-42.667s-19.103-42.667-42.667-42.667v0c-235.264 0-426.667 191.445-426.667 426.667 0 235.264 191.403 426.667 426.667 426.667s426.667-191.403 426.667-426.667c0-83.797-24.192-163.84-68.949-232.405l34.944 8.405c2.968 0.735 6.376 1.157 9.882 1.157 20.032 0 36.849-13.763 41.511-32.35l0.063-0.295zM391.851 626.091h237.141v-0.555c-13.995-22.613-21.888-34.731-23.68-36.267h-63.36c8.704-10.667 14.635-23.765 17.749-39.125h67.541c0.853-0.213 1.28-0.555 1.28-1.067-15.189-23.851-22.869-35.797-23.211-35.797h-43.819c-0.981-12.245-6.613-27.008-16.768-44.331-13.483-17.451-26.411-28.715-38.699-33.963-22.997-11.52-45.013-17.365-66.091-17.365v-0.427c0-1.792 5.205-8.96 15.531-21.547l117.077-148.565v-6.997c0-0.683-0.384-1.024-1.195-1.024h-51.499c-92.715 113.536-139.051 170.539-139.051 171.093v34.432l0.469 1.323c8.235-1.237 17.835-1.835 28.843-1.835 51.968 0 84.224 17.707 96.896 53.12 1.963 5.248 2.987 10.581 2.987 16.085h-141.099c-0.683 0-1.024 0.341-1.024 1.067 15.659 23.808 23.595 35.84 23.936 35.84h111.915v0.427c-6.4 13.696-18.773 24.32-37.248 31.915-10.518 3.971-22.674 6.415-35.357 6.738l-0.142 0.003h-62.549v1.28c15.147 23.68 22.912 35.541 23.467 35.541z" />
<glyph unicode="&#xe90d;" glyph-name="ic-chevron-down" d="M780.587 545.92l-60.16 60.16-195.84-195.413-195.84 195.413-60.16-60.16 256-256z" />
<glyph unicode="&#xe90e;" glyph-name="ic-chevron-right" d="M426.667 704l-60.16-60.16 195.413-195.84-195.413-195.84 60.16-60.16 256 256z" />
<glyph unicode="&#xe90f;" glyph-name="ic-clear" d="M810.667 686.507l-60.16 60.16-238.507-238.507-238.507 238.507-60.16-60.16 238.507-238.507-238.507-238.507 60.16-60.16 238.507 238.507 238.507-238.507 60.16 60.16-238.507 238.507z" />
<glyph unicode="&#xe910;" glyph-name="ic-edit" d="M128 224v-160h160l471.893 471.893-160 160-471.893-471.893zM883.627 659.627c7.709 7.693 12.478 18.33 12.478 30.080s-4.769 22.387-12.477 30.079l-99.841 99.841c-7.693 7.709-18.33 12.478-30.080 12.478s-22.387-4.769-30.079-12.477l-78.081-78.081 160-160 78.080 78.080z" />
<glyph unicode="&#xe911;" glyph-name="ic-facebook" d="M213.333 832h597.333c47.128 0 85.333-38.205 85.333-85.333v0-597.333c0-47.128-38.205-85.333-85.333-85.333v0h-597.333c-47.128 0-85.333 38.205-85.333 85.333v0 597.333c0 47.128 38.205 85.333 85.333 85.333v0zM768 746.667h-106.667c-82.475 0-149.333-66.859-149.333-149.333v0-106.667h-85.333v-128h85.333v-298.667h128v298.667h128v128h-128v85.333c0 23.564 19.103 42.667 42.667 42.667v0h85.333v128z" />
<glyph unicode="&#xe912;" glyph-name="ic-file-download" d="M810.667 576h-170.667v256h-256v-256h-170.667l298.667-298.667 298.667 298.667zM213.333 192v-85.333h597.333v85.333h-597.333z" />
<glyph unicode="&#xe913;" glyph-name="ic-launch" d="M810.667 149.333h-597.333v597.333h298.667v85.333h-298.667c-47.128 0-85.333-38.205-85.333-85.333v0-597.333c0-47.128 38.205-85.333 85.333-85.333v0h597.333c46.933 0 85.333 38.4 85.333 85.333v298.667h-85.333v-298.667zM597.333 832v-85.333h153.173l-419.413-419.413 60.16-60.16 419.413 419.413v-153.173h85.333v298.667h-298.667z" />
<glyph unicode="&#xe914;" glyph-name="ic-lightbulb-outline" d="M384 64c0-23.467 19.2-42.667 42.667-42.667h170.667c23.467 0 42.667 19.2 42.667 42.667v42.667h-256v-42.667zM512 874.667c-164.693 0-298.667-133.973-298.667-298.667 0-101.547 50.773-190.72 128-244.907v-96.427c0-23.467 19.2-42.667 42.667-42.667h256c23.467 0 42.667 19.2 42.667 42.667v96.427c77.227 54.187 128 143.36 128 244.907 0 164.693-133.973 298.667-298.667 298.667zM633.6 401.067l-36.267-25.6v-98.133h-170.667v98.133l-36.267 25.6c-55.661 38.954-91.634 102.732-91.733 174.918v0.015c0 117.76 95.573 213.333 213.333 213.333s213.333-95.573 213.333-213.333c0-69.547-34.133-134.827-91.733-174.933z" />
<glyph unicode="&#xe915;" glyph-name="ic-mail" d="M853.333 789.333h-682.667c-46.933 0-84.907-38.4-84.907-85.333l-0.427-512c0-46.933 38.4-85.333 85.333-85.333h682.667c46.933 0 85.333 38.4 85.333 85.333v512c0 46.933-38.4 85.333-85.333 85.333zM853.333 618.667l-341.333-213.333-341.333 213.333v85.333l341.333-213.333 341.333 213.333v-85.333z" />
<glyph unicode="&#xe916;" glyph-name="ic-search" d="M661.333 362.667h-33.707l-11.947 11.52c41.625 48.070 66.987 111.215 66.987 180.284 0 0.069 0 0.138 0 0.207v-0.011c0 153.167-124.166 277.333-277.333 277.333s-277.333-124.166-277.333-277.333c0-153.167 124.166-277.333 277.333-277.333v0c68.693 0 131.84 25.173 180.48 66.987l11.52-11.947v-33.707l213.333-212.907 63.573 63.573-212.907 213.333zM405.333 362.667c-106.24 0-192 85.76-192 192s85.76 192 192 192 192-85.76 192-192-85.76-192-192-192z" />
<glyph unicode="&#xe917;" glyph-name="ic-star" d="M512 223.147l263.68-159.147-69.973 299.947 232.96 201.813-306.773 26.027-119.893 282.88-119.893-282.88-306.773-26.027 232.96-201.813-69.973-299.947z" />
<glyph unicode="&#xe918;" glyph-name="ic-twitter" d="M925.44 709.035c-28.749-13.31-62.102-23.061-97.101-27.554l-1.715-0.18c35.585 21.663 62.3 54.881 75.175 94.352l0.345 1.221c-33.365-20.053-70.315-34.133-109.227-42.155-31.744 34.56-76.331 54.613-126.933 54.613-94.336 0-171.435-77.099-171.435-172.288 0-13.653 1.579-26.88 4.395-39.339-143.443 7.478-269.613 75.604-354.298 179.016l-0.688 0.867c-14.642-24.637-23.296-54.317-23.296-86.018 0-0.104 0-0.209 0-0.313v0.016c0-59.819 30.123-112.853 76.715-142.933-28.501 0-55.040 8.021-78.293 20.053v-1.195c0-0.046 0-0.1 0-0.154 0-83.072 58.765-152.419 136.992-168.739l1.12-0.195c-13.413-3.815-28.818-6.009-44.735-6.009-11.587 0-22.902 1.163-33.835 3.377l1.088-0.184c22.481-68.986 85.606-118.221 160.432-119.635l0.165-0.002c-57.77-46.058-131.835-73.902-212.404-73.902-0.567 0-1.133 0.001-1.699 0.004h0.087c-13.653 0-27.307 0.811-40.96 2.389 74.543-48.586 165.778-77.483 263.761-77.483 0.166 0 0.333 0 0.499 0h-0.026c316.416 0 490.325 262.613 490.325 490.325 0 7.637 0 14.848-0.427 22.485 33.944 24.667 62.48 54.358 85.143 88.303l0.788 1.254z" />
<glyph unicode="&#xe919;" glyph-name="web" d="M853.333 789.333h-682.667c-46.933 0-84.907-38.4-84.907-85.333l-0.427-512c0-46.933 38.4-85.333 85.333-85.333h682.667c46.933 0 85.333 38.4 85.333 85.333v512c0 46.933-38.4 85.333-85.333 85.333zM640 192h-469.333v170.667h469.333v-170.667zM640 405.333h-469.333v170.667h469.333v-170.667zM853.333 192h-170.667v384h170.667v-384z" />
<glyph unicode="&#xe91a;" glyph-name="home" d="M426.667 106.667v256h170.667v-256h213.333v341.333h128l-426.667 384-426.667-384h128v-341.333z" />
<glyph unicode="&#xe91b;" d="M675.474 835.291h-174.080s-6.217-8.411-17.189-24.869v0h46.080c9.372-0.247 18.264-1.968 26.56-4.94l-0.595 0.186c11.82-3.837 21.408-11.763 27.304-22.072l0.125-0.237h-82.286l-17.554-24.869h103.497c0-0.023 0-0.050 0-0.077 0-4.059-0.806-7.929-2.267-11.459l0.073 0.199q-13.897-36.571-70.949-36.571c-3.173-0.232-6.874-0.365-10.606-0.365s-7.433 0.132-11.098 0.393l0.493-0.028v-24.869l102.034-119.223h36.571s0 0 0 0v4.754l-83.017 103.863c-4.361 4.336-8.125 9.266-11.164 14.659l-0.174 0.335c17.735 1.051 34.088 6.075 48.468 14.187l-0.559-0.29c11.561 5.605 21.146 13.667 28.377 23.559l0.148 0.213c6.224 8.78 10.615 19.294 12.382 30.675l0.052 0.41h32.183l16.823 24.869h-50.469c-2.131 10.593-6.755 19.868-13.239 27.517l0.073-0.088h46.811c5.65 7.014 11.31 14.885 16.542 23.058l0.646 1.079z" />
<glyph unicode="&#xe91c;" d="M870.034 441.417h-745.326c-15.141 0.010-27.411 12.286-27.411 27.429 0 2.205 0.26 4.349 0.752 6.404l-0.038-0.187 109.714 463.726c2.921 12.24 13.761 21.203 26.696 21.211h745.327c15.141-0.010 27.411-12.286 27.411-27.429 0-2.205-0.26-4.349-0.752-6.404l0.038 0.187-109.714-463.726c-2.921-12.24-13.761-21.203-26.696-21.211h-0.001zM159.451 496.274h688.64l96.914 408.869h-689.006z" />
<glyph unicode="&#xe91d;" d="M152.503 904.777h-125.074c-15.249 0-27.611 12.362-27.611 27.611s12.362 27.611 27.611 27.611h125.074c15.148 0 27.429-12.28 27.429-27.429s-12.28-27.429-27.429-27.429v0z" />
<glyph unicode="&#xe91e;" d="M109.714 770.56h-66.194c-15.148 0-27.429 12.28-27.429 27.429s12.28 27.429 27.429 27.429v0h66.194c15.148 0 27.429-12.28 27.429-27.429s-12.28-27.429-27.429-27.429v0z" />
<glyph unicode="&#xe91f;" glyph-name="code-icon" d="M401.067 251.733l-196.267 196.267 196.267 196.267-59.733 59.733-256-256 256-256 59.733 59.733zM622.933 251.733l196.267 196.267-196.267 196.267 59.733 59.733 256-256-256-256-59.733 59.733z" />
<glyph unicode="&#xe920;" glyph-name="cart" d="M298.667 192c-46.933 0-84.907-38.4-84.907-85.333s37.973-85.333 84.907-85.333 85.333 38.4 85.333 85.333-38.4 85.333-85.333 85.333zM42.667 874.667v-85.333h85.333l153.6-323.84-57.6-104.533c-6.827-11.947-10.667-26.027-10.667-40.96 0-46.933 38.4-85.333 85.333-85.333h512v85.333h-494.080c-5.973 0-10.667 4.693-10.667 10.667l1.28 5.12 38.4 69.547h317.867c32 0 60.16 17.493 74.667 43.947l152.747 276.907c3.413 5.973 5.12 13.227 5.12 20.48 0 23.467-19.2 42.667-42.667 42.667h-631.040l-40.107 85.333h-139.52zM725.333 192c-46.933 0-84.907-38.4-84.907-85.333s37.973-85.333 84.907-85.333 85.333 38.4 85.333 85.333-38.4 85.333-85.333 85.333z" />
</font>
</defs>
</svg>
